<svg width="31" height="31" viewBox="0 0 31 31" fill="none" xmlns="http://www.w3.org/2000/svg">
<g clip-path="url(#clip0_248_2175)">
<path d="M18.0187 15.7696C22.1042 15.7696 25.4275 12.4458 25.4275 8.36028C25.4275 4.27478 22.1042 0.950928 18.0187 0.950928C13.9332 0.950928 10.6094 4.27478 10.6094 8.36028C10.6094 12.4458 13.9332 15.7696 18.0187 15.7696ZM17.1413 4.00511V3.80387C17.1413 3.31893 17.5338 2.9264 18.0187 2.9264C18.5031 2.9264 18.8962 3.31893 18.8962 3.80387V4.00628C19.9404 4.23032 20.726 5.16044 20.726 6.27073C20.726 6.7551 20.3329 7.1482 19.8485 7.1482C19.3636 7.1482 18.9711 6.7551 18.9711 6.27073C18.9711 5.96128 18.7189 5.70915 18.4095 5.70915H17.6227C17.3132 5.70915 17.0611 5.96128 17.0611 6.27073C17.0611 6.44798 17.1459 6.61646 17.2887 6.72175L18.0187 7.26227L19.7924 8.57497C20.375 9.0061 20.726 9.69579 20.7307 10.4212V10.4294C20.7348 11.0483 20.4979 11.6321 20.0626 12.0726C19.7397 12.3996 19.3361 12.6189 18.8962 12.7114V12.9167C18.8962 13.4016 18.5031 13.7942 18.0187 13.7942C17.5338 13.7942 17.1413 13.4016 17.1413 12.9167V12.7143C16.7131 12.623 16.3194 12.4124 16.0011 12.0977C15.5606 11.6631 15.3161 11.0828 15.3126 10.4639C15.3097 9.9795 15.6999 9.58406 16.1842 9.58113H16.1901C16.6721 9.58113 17.0646 9.97073 17.0675 10.4533C17.0687 10.7562 17.3124 11.0114 17.6321 11.0114C18.1169 11.0085 17.9363 11.0095 18.4177 11.0067C18.7291 11.0043 18.9782 10.7515 18.9758 10.4411V10.4329C18.9746 10.2574 18.8898 10.0901 18.7482 9.98535L18.0187 9.44542L16.2445 8.13272C15.6572 7.6975 15.3062 7.00137 15.3062 6.27073C15.3062 5.1581 16.0941 4.2274 17.1413 4.00511Z" fill="white"/>
<path d="M6.01358 19.9857C5.78866 19.5957 5.28903 19.4601 4.89668 19.6864L0.769183 22.069C0.378358 22.2952 0.244281 22.7951 0.469907 23.1864L4.68843 30.493C4.91423 30.8837 5.4138 31.0179 5.80533 30.7922L9.93283 28.409C10.3242 28.1833 10.4578 27.6835 10.2321 27.2921L6.01358 19.9857Z" fill="white"/>
<path d="M29.6636 18.5272C29.2664 17.9756 28.4977 17.851 27.9466 18.2482C26.2748 19.4526 23.0644 21.7657 22.8094 21.9499C22.6918 22.05 22.5683 22.1406 22.4396 22.2208C21.9348 22.5384 21.3492 22.7081 20.7379 22.7081H16.5349C16.0505 22.7081 15.6574 22.3155 15.6574 21.8306C15.6574 21.3451 16.0511 20.9531 16.5349 20.9531H21.0298C21.6903 20.9531 22.2191 20.4032 22.1916 19.7416C22.1659 19.1139 21.63 18.6272 21.0018 18.6272H17.5802C17.3486 18.3821 17.0947 18.1575 16.8227 17.9569C15.8873 17.2672 14.7314 16.8594 13.4801 16.8594C11.2554 16.8594 9.04186 18.261 8.12402 20.1318L11.7135 26.3484H18.4466C19.7686 26.3484 21.0708 26.0103 22.2168 25.351C22.614 25.1229 23.0392 24.8485 23.5002 24.5174C25.4318 23.1298 29.381 20.2471 29.3839 20.2453C29.9362 19.8487 30.0613 19.0788 29.6636 18.5272Z" fill="white"/>
</g>
<defs>
<clipPath id="clip0_248_2175">
<rect width="29.951" height="29.951" fill="white" transform="translate(0.152344 0.950928)"/>
</clipPath>
</defs>
</svg>
