<svg width="31" height="31" viewBox="0 0 31 31" fill="none" xmlns="http://www.w3.org/2000/svg">
<g clip-path="url(#clip0_248_2182)">
<path d="M25.7421 16.9396H23.4258C23.6619 17.586 23.7909 18.2836 23.7909 19.0107V27.7649C23.7909 28.0681 23.7381 28.359 23.6421 28.6297H27.4715C28.9019 28.6297 30.0656 27.4659 30.0656 26.0355V21.2632C30.0657 18.8792 28.1261 16.9396 25.7421 16.9396Z" fill="white"/>
<path d="M6.38905 19.0108C6.38905 18.2836 6.51804 17.5861 6.75414 16.9397H4.43785C2.05382 16.9397 0.114258 18.8793 0.114258 21.2633V26.0356C0.114258 27.466 1.27796 28.6298 2.70841 28.6298H6.53781C6.44182 28.359 6.38905 28.0681 6.38905 27.765V19.0108Z" fill="white"/>
<path d="M17.7371 14.6871H12.4418C10.0577 14.6871 8.11816 16.6267 8.11816 19.0107V27.765C8.11816 28.2425 8.5053 28.6297 8.98288 28.6297H21.196C21.6736 28.6297 22.0607 28.2425 22.0607 27.765V19.0107C22.0607 16.6267 20.1211 14.6871 17.7371 14.6871Z" fill="white"/>
<path d="M15.0893 3.22302C12.2222 3.22302 9.88965 5.55558 9.88965 8.42274C9.88965 10.3675 10.963 12.066 12.5482 12.9578C13.3001 13.3807 14.1669 13.6224 15.0893 13.6224C16.0117 13.6224 16.8785 13.3807 17.6304 12.9578C19.2156 12.066 20.2889 10.3675 20.2889 8.42274C20.2889 5.55563 17.9564 3.22302 15.0893 3.22302Z" fill="white"/>
<path d="M5.95897 8.06952C3.81473 8.06952 2.07031 9.81393 2.07031 11.9582C2.07031 14.1024 3.81473 15.8468 5.95897 15.8468C6.50289 15.8468 7.02083 15.7342 7.49133 15.5317C8.3048 15.1814 8.97554 14.5615 9.39059 13.7849C9.68191 13.2399 9.84763 12.6181 9.84763 11.9582C9.84763 9.81399 8.10322 8.06952 5.95897 8.06952Z" fill="white"/>
<path d="M24.2207 8.06952C22.0764 8.06952 20.332 9.81393 20.332 11.9582C20.332 12.6182 20.4978 13.2399 20.7891 13.7849C21.2041 14.5615 21.8749 15.1815 22.6883 15.5317C23.1588 15.7342 23.6768 15.8468 24.2207 15.8468C26.3649 15.8468 28.1094 14.1024 28.1094 11.9582C28.1094 9.81393 26.3649 8.06952 24.2207 8.06952Z" fill="white"/>
</g>
<defs>
<clipPath id="clip0_248_2182">
<rect width="29.951" height="29.951" fill="white" transform="translate(0.114258 0.950928)"/>
</clipPath>
</defs>
</svg>
