<svg width="60" height="60" viewBox="0 0 60 60" fill="none" xmlns="http://www.w3.org/2000/svg">
<circle cx="29.951" cy="29.951" r="29.951" fill="#FFC708"/>
<path d="M47.3459 11H33.661C33.4984 11 33.351 11.0977 33.29 11.252C33.229 11.4064 33.262 11.5787 33.3764 11.6944L37.0003 15.3619L28.919 23.5405C28.7614 23.6999 28.7614 23.9571 28.919 24.114C29.0765 24.2735 29.3306 24.2735 29.4857 24.114L37.8516 15.6474C38.0092 15.4879 38.0092 15.2307 37.8516 15.0739L34.6292 11.8127H46.9444V24.276L43.722 21.0149C43.5644 20.8554 43.3103 20.8554 43.1553 21.0149L34.7919 29.479C34.6343 29.6384 34.6343 29.8956 34.7919 30.0525C34.8707 30.1322 34.9723 30.1708 35.0765 30.1708C35.1807 30.1708 35.2824 30.1322 35.3611 30.0525L43.4425 21.8739L47.0663 25.5414C47.1807 25.6571 47.3535 25.6932 47.5034 25.6289C47.6534 25.5671 47.7525 25.418 47.7525 25.2534V11.4064C47.7525 11.1826 47.5721 11 47.351 11H47.3459Z" stroke="white" stroke-miterlimit="10"/>
<path d="M25.8335 30.1322V20.4748C25.8335 20.251 25.6531 20.0684 25.432 20.0684H15.8895C15.7268 20.0684 15.5794 20.1662 15.5184 20.3205C15.4574 20.4722 15.4905 20.6471 15.6048 20.7628L18.0445 23.2318L12.1182 29.2295C11.9606 29.3889 11.9606 29.6461 12.1182 29.803C12.2757 29.9624 12.5299 29.9624 12.6849 29.803L18.8958 23.5173C19.0534 23.3579 19.0534 23.1007 18.8958 22.9438L16.8577 20.8811H25.0305V29.1497L22.9924 27.0871C22.8348 26.9276 22.5807 26.9276 22.4257 27.0871L12.1182 37.5161C11.9606 37.6755 11.9606 37.9327 12.1182 38.0896C12.197 38.1693 12.2986 38.2079 12.4028 38.2079C12.507 38.2079 12.6086 38.1693 12.6874 38.0896L22.7078 27.9487L25.1474 30.4177C25.2618 30.5334 25.4346 30.5694 25.5845 30.5051C25.7344 30.4434 25.8335 30.2942 25.8335 30.1296V30.1322Z" stroke="white" stroke-miterlimit="10"/>
<path d="M22.601 35.8726L12.1182 46.4842C11.9606 46.6437 11.9606 46.9009 12.1182 47.0577C12.197 47.1375 12.2986 47.1761 12.4028 47.1761C12.507 47.1761 12.6086 47.1375 12.6874 47.0577L23.1703 36.4487C23.3278 36.2893 23.3278 36.0321 23.1703 35.8752C23.0127 35.7158 22.7586 35.7158 22.6036 35.8752L22.601 35.8726Z" stroke="white" stroke-miterlimit="10"/>
<path d="M24.7079 16.2801C24.8095 16.2801 24.9137 16.2415 24.9925 16.1618L29.4067 11.6944C29.5643 11.5349 29.5643 11.2778 29.4067 11.1209C29.2492 10.9614 28.995 10.9614 28.84 11.1209L24.4258 15.5882C24.2682 15.7477 24.2682 16.0049 24.4258 16.1618C24.5046 16.2415 24.6062 16.2801 24.7104 16.2801H24.7079Z" stroke="white" stroke-miterlimit="10"/>
<path d="M47.0637 29.749L42.6494 34.2163C42.4919 34.3758 42.4919 34.633 42.6494 34.7899C42.7282 34.8696 42.8299 34.9082 42.934 34.9082C43.0382 34.9082 43.1399 34.8696 43.2187 34.7899L47.6329 30.3225C47.7905 30.1631 47.7905 29.9059 47.6329 29.749C47.4753 29.5895 47.2212 29.5895 47.0662 29.749H47.0637Z" stroke="white" stroke-miterlimit="10"/>
<path d="M32.7252 32.4443C28.6947 32.4443 25.6553 33.8229 25.6553 35.6489V46.5357C25.6553 48.3617 28.6947 49.7402 32.7252 49.7402C36.7557 49.7402 39.795 48.3617 39.795 46.5357V35.6489C39.795 33.8229 36.7557 32.4443 32.7252 32.4443V32.4443ZM32.7252 45.3269C29.0327 45.3269 26.4583 44.0667 26.4583 42.935V40.8647C27.6172 41.878 29.9323 42.539 32.7252 42.539C35.518 42.539 37.8306 41.878 38.992 40.8647V42.935C38.992 44.0667 36.4177 45.3269 32.7252 45.3269ZM32.7252 41.7263C29.0327 41.7263 26.4583 40.466 26.4583 39.3344V37.2023C27.6172 38.2156 29.9323 38.8766 32.7252 38.8766C35.518 38.8766 37.8306 38.2156 38.992 37.2023V39.3344C38.992 40.466 36.4177 41.7263 32.7252 41.7263V41.7263ZM32.7252 48.9301C29.0327 48.9301 26.4583 47.6699 26.4583 46.5382V44.4679C27.6172 45.4812 29.9323 46.1422 32.7252 46.1422C35.518 46.1422 37.8306 45.4812 38.992 44.4679V46.5382C38.992 47.6699 36.4177 48.9301 32.7252 48.9301ZM38.992 35.672C38.992 36.8037 36.4177 38.0639 32.7252 38.0639C29.0327 38.0639 26.4583 36.8037 26.4583 35.672V35.6489C26.4583 34.5173 29.0327 33.2571 32.7252 33.2571C36.4177 33.2571 38.992 34.5173 38.992 35.6489V35.672Z" stroke="white" stroke-miterlimit="10"/>
</svg>
